<svg width="160" height="112" viewBox="0 0 160 112" fill="none" xmlns="http://www.w3.org/2000/svg">
  <path d="M26 78c14 8 31 11 48 8 24-4 42-18 45-36" stroke="#2EEBFF" stroke-width="5" stroke-linecap="round"/>
  <path d="M48 34c10-16 30-23 48-16 15 6 24 19 23 34" stroke="#9B7CFF" stroke-width="5" stroke-linecap="round"/>
  <path d="M88 68 70 50c-5-5-5-12 0-16 5-4 11-3 15 2l9 10 18-25c3-5 10-6 15-2 5 3 6 10 2 15l-26 37c-4 6-10 7-15 1Z" fill="#11122C" stroke="#F8F7FF" stroke-width="5" stroke-linejoin="round"/>
  <path d="M94 45 107 27" stroke="#FFD166" stroke-width="7" stroke-linecap="round"/>
  <circle cx="33" cy="76" r="8" stroke="#2EEBFF" stroke-width="4"/>
  <circle cx="48" cy="67" r="4" fill="#2EEBFF"/>
</svg>
