<svg xmlns="http://www.w3.org/2000/svg" viewBox="0 0 128 128">
  <path fill="#050505" d="M24 12h80c7 0 12 5 12 12v80c0 7-5 12-12 12H24c-7 0-12-5-12-12V24c0-7 5-12 12-12Z"/>
  <path fill="#ff6f78" d="M27 25h74v76H27z"/>
  <path fill="#050505" d="M27 25h74v24C92 61 80 68 64 68S36 61 27 49V25Z"/>
  <path fill="#ff6f78" d="M42 36h44v8c-6 8-14 12-22 12s-16-4-22-12v-8Z"/>
  <path fill="#050505" d="M58 61h12v35H58z"/>
  <path fill="#050505" d="M45 65h38v10H45z"/>
  <path fill="#050505" d="M50 82h28v10H50z"/>
  <path fill="#050505" d="M33 101h62v8H33z"/>
  <path fill="#050505" d="M50 13c5 8 10 13 14 15 4-2 9-7 14-15l10 8c-7 11-15 18-24 23-9-5-17-12-24-23l10-8Z"/>
</svg>
