<svg xmlns="http://www.w3.org/2000/svg" viewBox="0 0 128 128">
  <path fill="#050505" d="M38 10h58c5 0 9 4 8 9l-10 44c-3 15-13 27-27 31v15h22c5 0 9 4 9 9H30c0-5 4-9 9-9h20V94C43 89 32 75 31 57L29 20c0-6 4-10 9-10Z"/>
  <path fill="#7ea0ff" d="M43 22h48l-5 24H45l-2-24Z"/>
  <path fill="#7ea0ff" d="M46 56h38c-3 15-11 25-20 25S48 70 46 56Z"/>
  <path fill="#050505" d="M96 32h12c9 0 16 7 16 16 0 15-14 28-31 29l3-15c8-1 14-7 14-14 0-3-2-5-5-5H94l2-11Z"/>
  <path fill="#050505" d="M16 34c8-9 16-10 24-3l-3 12c-4-4-8-3-13 3l-8-12Z"/>
</svg>
