<svg xmlns="http://www.w3.org/2000/svg" viewBox="0 0 128 128">
  <path fill="#050505" d="M22 18h84c8 0 14 6 14 14v64c0 8-6 14-14 14H22c-8 0-14-6-14-14V32c0-8 6-14 14-14Z"/>
  <path fill="#f1f09b" d="M25 32h78c3 0 5 2 5 5v54c0 3-2 5-5 5H25c-3 0-5-2-5-5V37c0-3 2-5 5-5Z"/>
  <path fill="#050505" d="M64 91C43 75 32 63 32 49c0-10 7-17 16-17 7 0 12 4 16 10 4-6 9-10 16-10 9 0 16 7 16 17 0 14-11 26-32 42Z"/>
  <path fill="#f1f09b" d="M64 75C49 63 42 56 42 49c0-4 3-7 7-7 5 0 8 4 10 8h10c2-4 5-8 10-8 4 0 7 3 7 7 0 7-7 14-22 26Z"/>
  <path fill="#050505" d="M37 43h58c6 0 10 4 10 10v23c0 6-4 10-10 10H64L48 99c-4 3-9 1-9-4v-9h-2c-6 0-10-4-10-10V53c0-6 4-10 10-10Z"/>
  <path fill="#f1f09b" d="M42 55h49v18H59L51 80v-7h-9V55Z"/>
  <circle cx="53" cy="64" r="4" fill="#050505"/>
  <circle cx="66" cy="64" r="4" fill="#050505"/>
  <circle cx="79" cy="64" r="4" fill="#050505"/>
</svg>
